<?xml version="1.0" encoding="UTF-8" standalone="no"?><!DOCTYPE svg PUBLIC "-//W3C//DTD SVG 1.1//EN" "http://www.w3.org/Graphics/SVG/1.1/DTD/svg11.dtd"><!-- Generated by graphviz version 2.40.1 (20161225.0304)
 --><!-- Title: linkedlist Pages: 1 --><svg xmlns="http://www.w3.org/2000/svg" xmlns:xlink="http://www.w3.org/1999/xlink" width="310pt" height="191pt" viewBox="0.00 0.00 310.00 191.00">
<g id="graph0" class="graph" transform="scale(1 1) rotate(0) translate(4 187)">
<title>linkedlist</title>
<polygon fill="#ffffff" stroke="transparent" points="-4,4 -4,-187 306,-187 306,4 -4,4"/>
<!-- A -->
<g id="node1" class="node">
<title>A</title>
<polygon fill="none" stroke="#ff0000" points="120,-146.5 120,-182.5 182,-182.5 182,-146.5 120,-146.5"/>
<text text-anchor="middle" x="129.75" y="-160.3" font-family="Times,serif" font-size="14.00" fill="#000000"> </text>
<polyline fill="none" stroke="#ff0000" points="139.5,-146.5 139.5,-182.5 "/>
<text text-anchor="middle" x="151" y="-160.3" font-family="Times,serif" font-size="14.00" fill="#000000">5</text>
<polyline fill="none" stroke="#ff0000" points="162.5,-146.5 162.5,-182.5 "/>
<text text-anchor="middle" x="172.25" y="-160.3" font-family="Times,serif" font-size="14.00" fill="#000000"> </text>
</g>
<!-- B -->
<g id="node2" class="node">
<title>B</title>
<polygon fill="none" stroke="#ff0000" points="59,-73.5 59,-109.5 121,-109.5 121,-73.5 59,-73.5"/>
<text text-anchor="middle" x="68.75" y="-87.3" font-family="Times,serif" font-size="14.00" fill="#000000"> </text>
<polyline fill="none" stroke="#ff0000" points="78.5,-73.5 78.5,-109.5 "/>
<text text-anchor="middle" x="90" y="-87.3" font-family="Times,serif" font-size="14.00" fill="#000000">3</text>
<polyline fill="none" stroke="#ff0000" points="101.5,-73.5 101.5,-109.5 "/>
<text text-anchor="middle" x="111.25" y="-87.3" font-family="Times,serif" font-size="14.00" fill="#000000"> </text>
</g>
<!-- A&#45;&gt;B -->
<g id="edge1" class="edge">
<title>A:c-&gt;B:data</title>
<path fill="none" stroke="#000000" d="M126.4186,-157.1068C124.6372,-153.643 122.3625,-149.515 120,-146 110.5744,-131.9759 96.8925,-130.4843 91.9075,-119.4953"/>
<ellipse fill="#000000" stroke="#000000" cx="128.2561" cy="-160.9001" rx="4" ry="4"/>
<polygon fill="#000000" stroke="#000000" points="90,-109.5 96.2949,-118.4791 90.9373,-114.4114 91.8747,-119.3227 91.8747,-119.3227 91.8747,-119.3227 90.9373,-114.4114 87.4544,-120.1663 90,-109.5 90,-109.5"/>
</g>
<!-- C -->
<g id="node3" class="node">
<title>C</title>
<polygon fill="none" stroke="#ff0000" points="181,-73.5 181,-109.5 243,-109.5 243,-73.5 181,-73.5"/>
<text text-anchor="middle" x="190.75" y="-87.3" font-family="Times,serif" font-size="14.00" fill="#000000"> </text>
<polyline fill="none" stroke="#ff0000" points="200.5,-73.5 200.5,-109.5 "/>
<text text-anchor="middle" x="212" y="-87.3" font-family="Times,serif" font-size="14.00" fill="#000000">8</text>
<polyline fill="none" stroke="#ff0000" points="223.5,-73.5 223.5,-109.5 "/>
<text text-anchor="middle" x="233.25" y="-87.3" font-family="Times,serif" font-size="14.00" fill="#000000"> </text>
</g>
<!-- A&#45;&gt;C -->
<g id="edge2" class="edge">
<title>A:c-&gt;C:data</title>
<path fill="none" stroke="#000000" d="M175.5814,-157.1068C177.3628,-153.643 179.6375,-149.515 182,-146 191.4256,-131.9759 205.1075,-130.4843 210.0925,-119.4953"/>
<ellipse fill="#000000" stroke="#000000" cx="173.7439" cy="-160.9001" rx="4" ry="4"/>
<polygon fill="#000000" stroke="#000000" points="212,-109.5 214.5456,-120.1663 211.0627,-114.4114 210.1253,-119.3227 210.1253,-119.3227 210.1253,-119.3227 211.0627,-114.4114 205.7051,-118.4791 212,-109.5 212,-109.5"/>
</g>
<!-- D -->
<g id="node4" class="node">
<title>D</title>
<polygon fill="none" stroke="#ff0000" points="0,-.5 0,-36.5 62,-36.5 62,-.5 0,-.5"/>
<text text-anchor="middle" x="9.75" y="-14.3" font-family="Times,serif" font-size="14.00" fill="#000000"> </text>
<polyline fill="none" stroke="#ff0000" points="19.5,-.5 19.5,-36.5 "/>
<text text-anchor="middle" x="31" y="-14.3" font-family="Times,serif" font-size="14.00" fill="#000000">2</text>
<polyline fill="none" stroke="#ff0000" points="42.5,-.5 42.5,-36.5 "/>
<text text-anchor="middle" x="52.25" y="-14.3" font-family="Times,serif" font-size="14.00" fill="#000000"> </text>
</g>
<!-- B&#45;&gt;D -->
<g id="edge3" class="edge">
<title>B:c-&gt;D:data</title>
<path fill="none" stroke="#000000" d="M65.3653,-84.1419C63.5722,-80.6859 61.3031,-76.5542 59,-73 50.14,-59.327 37.6204,-57.2507 32.8998,-46.6253"/>
<ellipse fill="#000000" stroke="#000000" cx="67.2284" cy="-87.9137" rx="4" ry="4"/>
<polygon fill="#000000" stroke="#000000" points="31,-36.5 37.267,-45.4986 31.9221,-41.4142 32.8442,-46.3285 32.8442,-46.3285 32.8442,-46.3285 31.9221,-41.4142 28.4214,-47.1584 31,-36.5 31,-36.5"/>
</g>
<!-- F -->
<g id="node6" class="node">
<title>F</title>
<polygon fill="none" stroke="#ff0000" points="80,-.5 80,-36.5 142,-36.5 142,-.5 80,-.5"/>
<text text-anchor="middle" x="89.75" y="-14.3" font-family="Times,serif" font-size="14.00" fill="#000000"> </text>
<polyline fill="none" stroke="#ff0000" points="99.5,-.5 99.5,-36.5 "/>
<text text-anchor="middle" x="111" y="-14.3" font-family="Times,serif" font-size="14.00" fill="#000000">4</text>
<polyline fill="none" stroke="#ff0000" points="122.5,-.5 122.5,-36.5 "/>
<text text-anchor="middle" x="132.25" y="-14.3" font-family="Times,serif" font-size="14.00" fill="#000000"> </text>
</g>
<!-- B&#45;&gt;F -->
<g id="edge5" class="edge">
<title>B:c-&gt;F:data</title>
<path fill="none" stroke="#000000" d="M111,-83.3C111,-74.7355 111,-60.6526 111,-46.8775"/>
<ellipse fill="#000000" stroke="#000000" cx="111" cy="-87.5" rx="4" ry="4"/>
<polygon fill="#000000" stroke="#000000" points="111,-36.5 115.5001,-46.5 111,-41.5 111.0001,-46.5 111.0001,-46.5 111.0001,-46.5 111,-41.5 106.5001,-46.5 111,-36.5 111,-36.5"/>
</g>
<!-- E -->
<g id="node5" class="node">
<title>E</title>
<polygon fill="none" stroke="#ff0000" points="160,-.5 160,-36.5 222,-36.5 222,-.5 160,-.5"/>
<text text-anchor="middle" x="169.75" y="-14.3" font-family="Times,serif" font-size="14.00" fill="#000000"> </text>
<polyline fill="none" stroke="#ff0000" points="179.5,-.5 179.5,-36.5 "/>
<text text-anchor="middle" x="191" y="-14.3" font-family="Times,serif" font-size="14.00" fill="#000000">7</text>
<polyline fill="none" stroke="#ff0000" points="202.5,-.5 202.5,-36.5 "/>
<text text-anchor="middle" x="212.25" y="-14.3" font-family="Times,serif" font-size="14.00" fill="#000000"> </text>
</g>
<!-- C&#45;&gt;E -->
<g id="edge4" class="edge">
<title>C:c-&gt;E:data</title>
<path fill="none" stroke="#000000" d="M191,-83.3C191,-74.7355 191,-60.6526 191,-46.8775"/>
<ellipse fill="#000000" stroke="#000000" cx="191" cy="-87.5" rx="4" ry="4"/>
<polygon fill="#000000" stroke="#000000" points="191,-36.5 195.5001,-46.5 191,-41.5 191.0001,-46.5 191.0001,-46.5 191.0001,-46.5 191,-41.5 186.5001,-46.5 191,-36.5 191,-36.5"/>
</g>
<!-- G -->
<g id="node7" class="node">
<title>G</title>
<polygon fill="none" stroke="#ff0000" points="240,-.5 240,-36.5 302,-36.5 302,-.5 240,-.5"/>
<text text-anchor="middle" x="249.75" y="-14.3" font-family="Times,serif" font-size="14.00" fill="#000000"> </text>
<polyline fill="none" stroke="#ff0000" points="259.5,-.5 259.5,-36.5 "/>
<text text-anchor="middle" x="271" y="-14.3" font-family="Times,serif" font-size="14.00" fill="#000000">9</text>
<polyline fill="none" stroke="#ff0000" points="282.5,-.5 282.5,-36.5 "/>
<text text-anchor="middle" x="292.25" y="-14.3" font-family="Times,serif" font-size="14.00" fill="#000000"> </text>
</g>
<!-- C&#45;&gt;G -->
<g id="edge6" class="edge">
<title>C:c-&gt;G:data</title>
<path fill="none" stroke="#000000" d="M236.6347,-84.1419C238.4278,-80.6859 240.6969,-76.5542 243,-73 251.86,-59.327 264.3796,-57.2507 269.1002,-46.6253"/>
<ellipse fill="#000000" stroke="#000000" cx="234.7716" cy="-87.9137" rx="4" ry="4"/>
<polygon fill="#000000" stroke="#000000" points="271,-36.5 273.5786,-47.1584 270.0779,-41.4142 269.1558,-46.3285 269.1558,-46.3285 269.1558,-46.3285 270.0779,-41.4142 264.733,-45.4986 271,-36.5 271,-36.5"/>
</g>
</g>
</svg>